<?xml version="1.0" encoding="utf-8"?>
<!-- Generator: Adobe Illustrator 19.1.0, SVG Export Plug-In . SVG Version: 6.00 Build 0)  -->
<svg version="1.1" id="Layer_1" xmlns="http://www.w3.org/2000/svg" xmlns:xlink="http://www.w3.org/1999/xlink" x="0px" y="0px"
	 viewBox="0 0 234.8 34" style="enable-background:new 0 0 234.8 34;" xml:space="preserve">
<style type="text/css">
	.st0{fill:#D49000;}
	.st1{fill:#513628;stroke:#D49000;stroke-width:0.4611;stroke-miterlimit:10;}
	.st2{fill:#513628;stroke:#D49000;stroke-width:0.4584;stroke-miterlimit:10;}
</style>
<g>
	<path class="st0" d="M64,26.9H65l1.7,2.7l1.7-2.7h1.1v5.7h-1v-4.1l-1.8,2.7h0L65,28.5v4.1h-1V26.9z"/>
	<path class="st0" d="M74.9,29.7L74.9,29.7c0-1.6,1.2-3,3-3s3,1.3,3,2.9v0c0,1.6-1.2,3-3,3C76.1,32.7,74.9,31.3,74.9,29.7z
		 M79.8,29.7L79.8,29.7c0-1.1-0.8-2-1.9-2c-1.1,0-1.9,0.9-1.9,2v0c0,1.1,0.8,2,1.9,2S79.8,30.8,79.8,29.7z"/>
	<path class="st0" d="M87.2,27.8h-1.8v-0.9h4.6v0.9h-1.8v4.8h-1V27.8z"/>
	<path class="st0" d="M94.7,29.7L94.7,29.7c0-1.6,1.2-3,3-3c1.8,0,3,1.3,3,2.9v0c0,1.6-1.2,3-3,3C95.9,32.7,94.7,31.3,94.7,29.7z
		 M99.6,29.7L99.6,29.7c0-1.1-0.8-2-1.9-2c-1.1,0-1.9,0.9-1.9,2v0c0,1.1,0.8,2,1.9,2C98.8,31.7,99.6,30.8,99.6,29.7z"/>
	<path class="st0" d="M105.9,26.9h2.5c0.7,0,1.3,0.2,1.6,0.6c0.3,0.3,0.5,0.7,0.5,1.2v0c0,0.9-0.6,1.5-1.4,1.7l1.5,2.2h-1.2l-1.4-2
		h-1.3v2h-1V26.9z M108.4,29.7c0.7,0,1.2-0.4,1.2-1v0c0-0.6-0.4-0.9-1.2-0.9h-1.5v1.9H108.4z"/>
	<path class="st0" d="M115.7,29.7L115.7,29.7c0-1.6,1.2-3,2.9-3c1.1,0,1.7,0.4,2.2,0.9l-0.6,0.7c-0.5-0.4-0.9-0.7-1.6-0.7
		c-1.1,0-1.9,0.9-1.9,2v0c0,1.1,0.8,2,1.9,2c0.7,0,1.2-0.3,1.6-0.7l0.6,0.7c-0.6,0.6-1.2,1-2.3,1C116.9,32.7,115.7,31.4,115.7,29.7z
		"/>
	<path class="st0" d="M127.6,30.3l-2.3-3.5h1.2l1.6,2.5l1.6-2.5h1.2l-2.3,3.4v2.3h-1V30.3z"/>
	<path class="st0" d="M135.1,29.7L135.1,29.7c0-1.6,1.2-3,2.9-3c1.1,0,1.7,0.4,2.2,0.9l-0.6,0.7c-0.5-0.4-0.9-0.7-1.6-0.7
		c-1.1,0-1.9,0.9-1.9,2v0c0,1.1,0.8,2,1.9,2c0.7,0,1.2-0.3,1.6-0.7l0.6,0.7c-0.6,0.6-1.2,1-2.3,1C136.4,32.7,135.1,31.4,135.1,29.7z
		"/>
	<path class="st0" d="M145.5,26.9h1v4.8h3v0.9h-4V26.9z"/>
	<path class="st0" d="M154.6,26.9h4.2v0.9h-3.2v1.5h2.9v0.9h-2.9v1.5h3.3v0.9h-4.3V26.9z"/>
	<path class="st0" d="M170.7,26.9h2.5c0.7,0,1.3,0.2,1.6,0.6c0.3,0.3,0.5,0.7,0.5,1.2v0c0,0.9-0.6,1.5-1.4,1.7l1.5,2.2h-1.2l-1.4-2
		h-1.3v2h-1V26.9z M173.2,29.7c0.7,0,1.2-0.4,1.2-1v0c0-0.6-0.4-0.9-1.2-0.9h-1.5v1.9H173.2z"/>
	<path class="st0" d="M180.7,26.9h4.2v0.9h-3.2v1.5h2.9v0.9h-2.9v1.5h3.3v0.9h-4.3V26.9z"/>
	<path class="st0" d="M190.2,26.9h0.9l3.1,4v-4h1v5.7h-0.8l-3.2-4.1v4.1h-1V26.9z"/>
	<path class="st0" d="M202.2,27.8h-1.8v-0.9h4.6v0.9h-1.8v4.8h-1V27.8z"/>
	<path class="st0" d="M211.4,26.8h0.9l2.5,5.8h-1.1l-0.6-1.4h-2.7l-0.6,1.4h-1L211.4,26.8z M212.9,30.3l-1-2.3l-1,2.3H212.9z"/>
	<path class="st0" d="M219.9,26.9h1v4.8h3v0.9h-4V26.9z"/>
	<path class="st0" d="M228.7,31.7l0.6-0.7c0.5,0.5,1.1,0.7,1.8,0.7c0.6,0,1-0.3,1-0.7v0c0-0.4-0.2-0.6-1.3-0.9
		c-1.2-0.3-1.9-0.7-1.9-1.7v0c0-1,0.8-1.7,2-1.7c0.8,0,1.5,0.3,2.1,0.7l-0.5,0.8c-0.5-0.4-1-0.6-1.6-0.6c-0.6,0-0.9,0.3-0.9,0.7v0
		c0,0.4,0.3,0.6,1.4,0.9c1.2,0.3,1.8,0.7,1.8,1.7v0c0,1.1-0.8,1.7-2,1.7C230.2,32.6,229.4,32.3,228.7,31.7z"/>
</g>
<g>
	<polygon class="st1" points="85,10 74.8,10 75.5,7.2 86.6,7.2 88.3,0.9 69.9,0.9 64,22.9 71.3,22.9 73.2,15.7 83.5,15.7 	"/>
	<path class="st1" d="M96,0.8L80.8,22.9h8l1.9-3h7.7l0.4,3h7.8l-3.3-22.1H96z M94,14.7l3.4-5.3l0.6,5.3H94z"/>
	<path class="st1" d="M121.4,9.1c-3-1.1-3.5-1.3-3.5-1.9c0-0.6,0.7-0.9,1.6-0.9c2.3,0,4.7,1.1,6.3,2.4l4.2-5c-2.4-2-5.9-3.3-9.8-3.3
		c-3.4,0-6.1,1.1-7.8,2.8c-1.3,1.3-2.1,3-2.1,4.9c0,3.2,1.9,4.7,6,6.2c3.2,1.2,3.6,1.4,3.6,2.1c0,0.6-0.7,1-1.6,1
		c-2.3,0-4.9-1-7.4-3.1l-4.2,5c2.7,2.4,6.5,4,10.8,4c3.5,0,6.2-1.1,7.8-2.7c1.4-1.4,2.1-3.2,2.1-5.1
		C127.6,12.1,125.2,10.5,121.4,9.1z"/>
	<polygon class="st1" points="155,0.9 151.9,0.9 150.2,0.9 131.6,0.9 129.9,7.1 136.4,7.1 132.2,22.9 139.5,22.9 143.7,7.1 
		150.2,7.1 150.2,22.9 166,22.9 166,18.5 155,18.5 	"/>
	<path class="st1" d="M177.1,0.8l-9.4,22.1h4.9l2-4.9h9.3l2,4.9h5.1l-9.4-22.1H177.1z M176.4,13.7l2.9-7.1l2.9,7.1H176.4z"/>
	<polygon class="st1" points="208.5,14.4 198.2,0.9 193.8,0.9 193.8,22.9 198.6,22.9 198.6,8.9 209.2,22.9 213.3,22.9 213.3,0.9 
		208.5,0.9 	"/>
	<polygon class="st1" points="221.8,18.6 221.8,14 232.2,14 232.2,9.7 221.8,9.7 221.8,5.2 233.6,5.2 233.6,0.9 217,0.9 217,22.9 
		233.8,22.9 233.8,18.6 	"/>
</g>
<g>
	<polygon class="st2" points="60.6,10.2 63.1,0.9 35.7,0.9 32.4,13.3 29.1,0.9 1.7,0.9 4.2,10.2 20.7,10.2 21.8,14.4 6.5,14.4 
		8.8,22.9 24.1,22.9 26.9,33.6 27,33.6 37.8,33.6 37.9,33.6 40.7,22.9 56,22.9 58.3,14.4 43,14.4 44.1,10.2 	"/>
	<polygon class="st0" points="37.9,33.6 26.9,33.6 32.4,12.7 	"/>
</g>
</svg>